HIERARCHY
ROOT Hips
{
 OFFSET 0.000000 0.000000 0.000000
 CHANNELS 6 Xposition Yposition Zposition Yrotation Xrotation Zrotation
 JOINT Chest
 {
  OFFSET 0.000000 9.876139 0.000104
  CHANNELS 3 Yrotation Xrotation Zrotation
  JOINT Chest2
  {
   OFFSET 0.000000 10.876137 -0.000189
   CHANNELS 3 Yrotation Xrotation Zrotation
   JOINT Chest3
   {
    OFFSET 0.000000 9.827065 0.000000
    CHANNELS 3 Yrotation Xrotation Zrotation
    JOINT Chest4
    {
     OFFSET 0.000000 9.827065 0.000000
     CHANNELS 3 Yrotation Xrotation Zrotation
     JOINT Neck
     {
      OFFSET 0.000000 13.837564 0.000000
      CHANNELS 3 Yrotation Xrotation Zrotation
      JOINT Head
      {
       OFFSET 0.000000 9.147059 -0.000448
       CHANNELS 3 Yrotation Xrotation Zrotation
       End Site
       {
        OFFSET 0.000000 17.513050 -0.000234
       }
      }
     }
     JOINT RightCollar
     {
      OFFSET -3.007721 7.720841 0.000000
      CHANNELS 3 Yrotation Xrotation Zrotation
      JOINT RightShoulder
      {
       OFFSET -14.032560 0.000000 0.000000
       CHANNELS 3 Yrotation Xrotation Zrotation
       JOINT RightElbow
       {
        OFFSET -30.066962 0.000000 0.000000
        CHANNELS 3 Yrotation Xrotation Zrotation
        JOINT RightWrist
        {
         OFFSET -24.575761 0.000000 0.000000
         CHANNELS 3 Yrotation Xrotation Zrotation
         JOINT Prop1
         {
          OFFSET -3.508170 -1.002334 -2.004669
          CHANNELS 3 Yrotation Xrotation Zrotation
          End Site
          {
           OFFSET -75.170729 -33.091210 23.052389
          }
         }
         End Site
         {
          OFFSET -18.342718 0.000000 0.000000
         }
        }
       }
      }
     }
     JOINT LeftCollar
     {
      OFFSET 3.007721 7.720841 0.000000
      CHANNELS 3 Yrotation Xrotation Zrotation
      JOINT LeftShoulder
      {
       OFFSET 14.032560 0.000000 0.000000
       CHANNELS 3 Yrotation Xrotation Zrotation
       JOINT LeftElbow
       {
        OFFSET 30.066962 0.000000 0.000000
        CHANNELS 3 Yrotation Xrotation Zrotation
        JOINT LeftWrist
        {
         OFFSET 24.575761 0.000000 0.000000
         CHANNELS 3 Yrotation Xrotation Zrotation
         End Site
         {
          OFFSET 18.342718 0.000000 0.000000
         }
        }
       }
      }
     }
    }
   }
  }
 }
 JOINT RightHip
 {
  OFFSET -8.019680 -0.000509 -0.000052
  CHANNELS 3 Yrotation Xrotation Zrotation
  JOINT RightKnee
  {
   OFFSET 0.000000 -41.754945 0.000049
   CHANNELS 3 Yrotation Xrotation Zrotation
   JOINT RightAnkle
   {
    OFFSET 0.000000 -40.737371 0.000083
    CHANNELS 3 Yrotation Xrotation Zrotation
    JOINT RightToe
    {
     OFFSET 0.000000 -6.498123 14.692914
     CHANNELS 3 Yrotation Xrotation Zrotation
     End Site
     {
      OFFSET 0.000000 -1.503208 6.410318
     }
    }
   }
  }
 }
 JOINT LeftHip
 {
  OFFSET 8.019680 -0.000509 -0.000052
  CHANNELS 3 Yrotation Xrotation Zrotation
  JOINT LeftKnee
  {
   OFFSET 0.000000 -41.754945 0.000049
   CHANNELS 3 Yrotation Xrotation Zrotation
   JOINT LeftAnkle
   {
    OFFSET 0.000000 -40.737371 0.000083
    CHANNELS 3 Yrotation Xrotation Zrotation
    JOINT LeftToe
    {
     OFFSET 0.000000 -6.498123 14.692914
     CHANNELS 3 Yrotation Xrotation Zrotation
     End Site
     {
      OFFSET 0.000000 -1.503208 6.410318
     }
    }
   }
  }
 }
}
MOTION
Frames: 14
Frame Time: 0.016667
-12.374014 75.710862 1.104618 -132.082721 0.000041 1.321617 -8.857490 12.244080 -7.305393 -3.710754 5.567412 -2.966526 -3.710754 5.567412 -2.966526 -2.753849 4.193850 -2.189337 -11.999576 14.670000 8.621416 -25.492501 -5.928710 20.373558 2.835338 -19.194398 -8.312283 23.561240 -1.927332 16.807872 -85.985540 71.323879 -83.101033 13.772469 10.583280 -29.699133 -15.383244 -11.106788 -97.742734 14.519089 -15.029596 -15.668170 31.998405 -16.574421 -56.574857 -24.744570 2.054636 1.613927 -3.180504 -4.485446 8.557742 -7.206402 -51.358731 -17.513396 -26.560807 55.194781 -22.061965 9.084810 4.484905 0.510968 -0.636106 -8.232205 9.480857 38.326028 2.633112 35.871303 -2.536094 19.572089 -1.034929 -3.120837 -18.826986 -19.162534 0.031723 -0.089686 0.132879
-12.399966 75.669539 1.129390 -132.291183 0.164008 1.316023 -8.739360 12.100966 -7.262634 -3.668012 5.505929 -2.948068 -3.668012 5.505929 -2.948068 -2.722332 4.147412 -2.176303 -12.036615 14.657137 8.576122 -25.549238 -5.954845 20.305791 2.699866 -18.805216 -8.427699 23.594750 -2.594181 16.838705 -88.350200 71.322653 -85.520362 13.875900 9.996475 -29.971181 -15.257419 -11.252027 -97.886208 14.476350 -14.967831 -15.655286 32.076093 -16.460620 -56.541211 -24.783179 1.985013 1.611800 -3.200575 -4.448156 8.546020 -6.985155 -51.582820 -17.606548 -26.638954 55.252961 -22.018101 9.062239 4.581772 0.506808 -0.652178 -8.311380 9.431016 38.360127 2.519875 35.753823 -2.507305 19.742921 -1.009756 -3.077358 -18.890125 -19.111952 0.039935 -0.107965 0.050145
-12.413675 75.628674 1.138907 -132.463087 0.253768 1.287619 -8.609598 11.990541 -7.209091 -3.619049 5.459120 -2.933199 -3.619049 5.459120 -2.933199 -2.686032 4.111973 -2.165907 -12.067115 14.640701 8.541051 -25.598180 -5.986283 20.255660 2.650861 -18.612970 -8.375854 23.732870 -2.695981 16.643926 -88.446361 71.412618 -85.529512 14.020530 9.946208 -29.954191 -15.081058 -11.488247 -97.844457 14.407491 -14.789790 -15.518570 32.199966 -16.438029 -56.636049 -24.750002 1.934999 1.546625 -3.218157 -4.449496 8.566524 -6.848817 -51.728829 -17.643965 -26.741782 55.311052 -22.013748 9.139859 4.637026 0.488415 -0.645754 -8.393187 9.383270 38.310158 2.508462 35.696377 -2.566540 19.877368 -1.017143 -2.828546 -18.890182 -19.086775 0.040300 -0.143020 -0.025928
-12.429828 75.586037 1.157176 -132.553167 0.328213 1.290755 -8.630973 11.980703 -7.146868 -3.633542 5.459626 -2.906172 -3.633542 5.459626 -2.906172 -2.697132 4.112261 -2.145519 -12.007256 14.544884 8.505545 -25.501385 -6.186686 20.197881 2.930299 -18.945559 -8.421103 23.865695 -2.445845 16.574001 -87.303581 71.422674 -84.238141 14.280851 10.176732 -29.748368 -14.897725 -11.621747 -97.653042 14.517410 -14.745871 -15.572605 32.373754 -16.549085 -56.771934 -24.649099 1.929003 1.501387 -3.224793 -4.476090 8.564184 -6.794133 -51.895914 -17.686401 -26.897423 55.388271 -22.104527 9.143519 4.702787 0.503003 -0.645088 -8.489085 9.318846 38.234813 2.538367 35.637095 -2.628957 19.954620 -1.033586 -2.713975 -18.941090 -19.020703 0.035545 -0.157956 -0.080993
-12.435485 75.538768 1.205393 -132.547341 0.287151 1.355646 -8.617210 11.911055 -7.142618 -3.640184 5.448364 -2.902083 -3.640184 5.448364 -2.902083 -2.702208 4.103821 -2.142470 -11.986250 14.552329 8.457784 -25.445303 -6.193076 20.101707 3.038927 -18.796249 -8.488553 23.833858 -2.313102 16.488765 -85.182094 71.494479 -82.204626 14.476040 10.567776 -29.674343 -14.776717 -11.781624 -97.599943 14.524891 -14.710251 -15.563153 32.472232 -16.515733 -56.737611 -24.470024 1.895798 1.513623 -3.229790 -4.493033 8.533526 -6.838276 -52.033892 -17.761816 -27.115551 55.452304 -22.361320 9.166906 4.856604 0.551025 -0.636817 -8.642562 9.257908 38.119113 2.661414 35.619350 -2.508781 20.041634 -1.030385 -2.764891 -18.951482 -18.950844 0.030165 -0.177948 -0.113476
-12.442540 75.498371 1.280133 -132.524249 0.139717 1.460807 -8.507183 11.807296 -7.213970 -3.604913 5.432508 -2.926400 -3.604913 5.432508 -2.926400 -2.675647 4.091903 -2.161112 -12.020403 14.645551 8.447886 -25.480921 -6.017888 20.069056 2.892226 -18.489094 -8.399707 23.839469 -2.001533 16.566022 -83.816702 71.448851 -80.888353 14.623228 10.507815 -29.788643 -14.616467 -11.887887 -97.741243 14.380734 -14.728215 -15.398114 32.509785 -16.343722 -56.576052 -24.232088 1.849857 1.540816 -3.235243 -4.499241 8.511693 -7.073132 -52.117594 -17.749211 -27.186428 55.491094 -22.627384 9.353334 5.056804 0.596002 -0.637064 -8.847440 9.205798 38.019645 2.886737 35.616779 -2.522716 20.089874 -1.033554 -2.722768 -18.947663 -18.889247 0.022703 -0.200036 -0.137448
-12.445914 75.458916 1.376318 -132.493002 0.168303 1.564252 -8.477382 11.709148 -7.251809 -3.589380 5.393404 -2.943814 -3.589380 5.393404 -2.943814 -2.664070 4.062601 -2.174557 -12.013416 14.684669 8.472355 -25.465980 -5.941965 20.101054 2.780757 -18.368220 -8.341205 23.857743 -2.247478 16.621561 -85.742465 71.472938 -82.716853 14.721831 10.061662 -29.988435 -14.338920 -12.072415 -97.890703 14.329419 -14.707214 -15.278893 32.533980 -16.322558 -56.490995 -23.950363 1.702464 1.523605 -3.244215 -4.469189 8.561782 -7.115687 -52.317095 -17.866721 -27.275258 55.528619 -22.780886 9.337433 5.215723 0.646809 -0.644685 -8.970500 9.154544 37.888568 2.978894 35.484941 -2.676976 20.152285 -1.079551 -2.513917 -18.981720 -18.842299 0.010740 -0.198598 -0.142891
-12.428182 75.428979 1.474895 -132.399143 0.327546 1.655440 -8.564117 11.655455 -7.210255 -3.616379 5.340381 -2.948746 -3.616379 5.340381 -2.948746 -2.684559 4.022994 -2.178364 -11.964331 14.645517 8.492182 -25.392238 -6.020667 20.132497 2.762465 -18.347395 -8.397079 23.933054 -2.626391 16.618343 -87.198530 71.647838 -84.195610 14.813590 9.768979 -29.897965 -14.113587 -12.143840 -97.803654 14.391171 -14.609909 -15.263054 32.633528 -16.489157 -56.551092 -23.673071 1.569445 1.463337 -3.276997 -4.472957 8.684625 -7.168822 -52.545666 -17.992031 -27.240967 55.492398 -22.768805 9.405063 5.237107 0.700759 -0.642479 -8.950960 9.105628 37.711748 2.939439 35.282224 -2.865546 20.208380 -1.134127 -2.372543 -19.133540 -18.789033 0.006637 -0.126174 -0.124995
-12.433016 75.429956 1.610420 -132.242642 0.469712 1.821838 -8.724402 11.655820 -7.213846 -3.678124 5.322795 -2.960473 -3.678124 5.322795 -2.960473 -2.730832 4.010178 -2.186732 -11.884414 14.545668 8.514570 -25.278250 -6.216981 20.175283 2.807260 -18.286162 -8.450648 24.092462 -2.634430 16.565063 -85.228199 71.700150 -82.157661 14.975203 9.969050 -29.759126 -13.964473 -12.090639 -97.791292 14.472314 -14.572295 -15.272919 32.804709 -16.664052 -56.674790 -23.474441 1.376418 1.358701 -3.334496 -4.490696 8.864549 -7.150314 -52.705927 -18.262761 -27.061332 55.377986 -22.604474 9.292547 5.361660 0.791006 -0.659387 -8.960097 9.051765 37.519653 2.944346 35.052531 -2.987463 20.257304 -1.265997 -2.347129 -19.302142 -18.674551 0.000432 -0.047335 -0.086467
-12.463087 75.470938 1.760201 -131.975634 0.468917 2.071276 -9.005672 11.759162 -7.268782 -3.792426 5.363816 -2.983281 -3.792426 5.363816 -2.983281 -2.816068 4.041653 -2.202554 -11.765703 14.405909 8.529365 -25.100733 -6.498498 20.202499 2.911811 -18.521148 -8.520300 24.239056 -2.872286 16.635278 -83.378014 71.652389 -80.394611 15.073476 10.395040 -29.602800 -13.771007 -11.965683 -97.763283 14.611897 -14.575107 -15.336900 32.965564 -16.827431 -56.858193 -23.345113 1.061913 1.260501 -3.389461 -4.524262 9.051660 -7.029023 -52.692432 -18.788358 -26.976542 55.234644 -22.505942 9.330053 5.525968 0.944678 -0.663351 -9.039328 8.984389 37.292794 3.070005 34.876745 -3.065377 20.308354 -1.472101 -2.313802 -19.361241 -18.579214 -0.001513 -0.013221 -0.018113
-12.553140 75.548779 1.918339 -131.706776 0.242430 2.381326 -9.238917 11.889826 -7.403753 -3.864076 5.409258 -3.035054 -3.864076 5.409258 -3.035054 -2.869051 4.076424 -2.240412 -11.717555 14.355314 8.531039 -25.025729 -6.602919 20.203870 2.701946 -18.618893 -8.507918 24.400545 -3.662873 16.737283 -83.791913 71.731232 -81.005915 15.239201 10.418125 -29.396668 -13.548555 -11.605517 -97.929766 14.598594 -14.493593 -15.285559 32.991432 -16.860374 -57.003605 -23.204262 0.649804 1.229785 -3.413800 -4.552152 9.193030 -6.842446 -52.468336 -19.439136 -26.952916 55.070300 -22.529922 9.443038 5.746181 1.196414 -0.689677 -9.176275 8.883333 37.101911 3.338772 34.811829 -2.875408 20.424295 -1.702000 -2.690303 -19.426538 -18.341333 -0.015970 -0.015005 0.034714
-12.655572 75.648094 2.115261 -131.491422 0.001848 2.837232 -9.381285 11.907289 -7.624614 -3.902946 5.423193 -3.120539 -3.902946 5.423193 -3.120539 -2.897346 4.087626 -2.304040 -11.731625 14.381037 8.512650 -25.038944 -6.557812 20.167667 2.299716 -18.436102 -8.372110 24.557093 -4.884407 16.802399 -83.679577 71.739685 -81.204929 15.461910 10.605807 -28.993432 -13.204087 -10.951445 -98.212431 14.471286 -14.448632 -15.161875 32.895536 -16.781655 -57.061542 -22.925665 0.287830 1.281954 -3.418796 -4.569076 9.261242 -6.305694 -52.289453 -20.468710 -26.828686 54.915731 -22.417364 9.615934 6.213306 1.471852 -0.697436 -9.484523 8.764432 36.831682 3.722796 34.529094 -2.780594 20.528207 -1.940157 -2.759144 -19.361309 -18.065710 -0.032634 -0.039594 0.039372
-12.767378 75.750752 2.419274 -131.277963 -0.054750 3.571072 -9.509916 11.772038 -7.958687 -3.956020 5.394993 -3.246468 -3.956020 5.394993 -3.246468 -2.936184 4.067575 -2.398154 -11.754911 14.404423 8.488038 -25.067694 -6.516172 20.123637 1.649046 -18.428294 -8.228235 24.735374 -6.717305 16.973772 -83.265954 71.768558 -81.249411 15.752787 11.410736 -28.235007 -12.799550 -10.267833 -98.700813 14.423838 -14.481355 -14.969466 32.785304 -16.684669 -57.202848 -22.561989 0.173534 1.343938 -3.385318 -4.574016 9.247051 -5.298608 -52.404978 -22.088119 -26.601167 54.801878 -22.133672 9.658530 6.993305 1.743909 -0.707459 -9.979253 8.632724 36.462778 4.103282 33.689857 -3.384494 20.573898 -2.070274 -2.272798 -19.428726 -17.776376 -0.046572 -0.000004 -0.029855
-12.884624 75.838528 2.840879 -130.967668 0.222573 4.566829 -9.650974 11.483304 -8.380224 -4.008180 5.274356 -3.409798 -4.008180 5.274356 -3.409798 -2.974618 3.978456 -2.520990 -11.800069 14.405939 8.463205 -25.142269 -6.508078 20.092127 0.570323 -18.521913 -8.114774 24.926590 -9.233679 17.156015 -84.476772 72.127400 -82.904488 16.132632 12.458529 -27.326178 -12.514461 -9.777326 -98.949821 14.240474 -14.399797 -14.680581 32.717410 -16.745706 -57.388695 -22.107377 0.248092 1.304639 -3.381790 -4.567729 9.199262 -4.119323 -52.978833 -24.161634 -26.603012 54.639944 -22.036276 9.873024 7.940104 1.988648 -0.711529 -10.565210 8.514323 36.072967 4.333086 32.321782 -3.942330 20.537871 -2.087438 -1.921003 -19.538170 -17.298879 -0.066403 0.099665 -0.185300
